<svg width="193" height="76" viewBox="0 0 193 76" fill="none" xmlns="http://www.w3.org/2000/svg">
<path d="M43.508 0.169281C26.8138 1.28339 10.4947 9.2007 3.21056 19.7018C-1.88523 27.0502 -0.853569 34.0667 5.86787 37.9306C9.74443 40.1351 13.5272 40.7988 21.2178 40.6092C24.1565 40.5144 27.1264 40.3484 27.8142 40.2299C28.6895 40.064 28.0643 40.0403 25.6258 40.1588C23.75 40.2536 20.9364 40.301 19.3733 40.2773C11.2138 40.1114 5.4302 37.7172 2.71036 33.403C1.74122 31.8385 1.58491 31.3407 1.45986 29.2784C1.11597 23.7079 4.80495 17.9002 12.308 12.2349C22.6246 4.43609 37.5055 0.169274 51.1047 1.11745C64.1412 2.01823 76.2398 9.50885 80.554 19.3462C81.9921 22.57 82.211 23.7553 82.1797 28.1169C82.1797 32.6682 81.7733 34.6356 79.8663 39.1158C79.116 40.9173 78.4595 41.8655 77.209 43.1455C76.3023 44.07 75.3332 45.1604 75.0206 45.5634C74.1452 46.7486 63.3909 52.2244 57.7011 54.3815C55.2001 55.3297 54.4811 55.4956 52.9492 55.4956C51.3236 55.4956 51.011 55.4245 50.1356 54.7608C48.6663 53.6229 48.5412 52.2481 49.7917 50.328L50.7609 48.8583L53.3556 48.4317C60.2334 47.2701 68.2991 43.6671 68.2991 41.747C68.2991 40.704 67.4863 40.3721 65.1104 40.4906C61.2963 40.704 55.6691 43.1218 51.8238 46.2034L49.9168 47.7442L47.6033 47.9102C46.3528 48.005 44.821 48.0287 44.227 47.9813C43.1328 47.9102 43.1328 47.9102 45.415 47.0094C46.6342 46.5116 47.6659 46.0138 47.6659 45.8716C47.6659 45.3738 46.3528 45.7293 43.6643 46.962C41.6322 47.8865 40.4755 48.2657 39.6939 48.2657C38.5997 48.2657 38.2559 48.6213 38.9124 49.1191C39.0999 49.2613 38.5685 49.8539 37.2555 50.8258L35.3172 52.2718L33.5039 51.7503C32.2534 51.3947 31.7532 51.134 31.847 50.8732C36.724 37.4802 45.6651 6.94877 45.0711 5.73984C44.821 5.26575 43.7893 5.24204 43.2266 5.69243C42.9765 5.85836 41.7573 8.93994 40.5068 12.4956C38.4434 18.3506 35.0045 27.9036 29.3773 43.4063C28.3144 46.3931 27.2514 49.3087 27.0639 49.8302C26.72 50.7784 26.6575 50.8258 24.9693 51.0629C22.0931 51.5132 19.2795 52.6985 16.9973 54.4526C11.5264 58.6246 10.526 65.0485 14.6526 69.7183C16.3721 71.6384 19.0294 73.5347 21.1865 74.3407C23.4999 75.194 28.2206 76 31.0967 76C37.0054 76 44.3208 74.0088 51.1047 70.548C55.0438 68.5331 60.7649 64.93 64.7352 61.9669L68.2053 59.3594L75.4895 58.5535C79.4911 58.1268 88.4322 57.0127 95.3725 56.0882C102.282 55.1637 110.597 54.097 113.817 53.7178L119.663 53.0066L120.726 53.9548C122.008 55.0926 123.665 55.4956 126.01 55.2586C128.042 55.0689 131.95 53.6466 134.326 52.2481L136.108 51.1814L144.33 50.4228C153.521 49.5932 163.462 48.8583 169.121 48.6213C173.216 48.4317 173.966 48.1946 173.966 47.0805C173.966 45.7056 173.435 45.6582 166.932 46.4879C164.338 46.796 159.086 47.3412 155.209 47.6731C151.332 48.005 145.924 48.5028 143.204 48.7635C140.484 49.0243 138.202 49.1902 138.171 49.1665C138.14 49.1191 138.609 48.3131 139.203 47.365L140.297 45.6108L140.703 46.322C141.328 47.4598 142.704 47.8627 145.486 47.7205C146.799 47.6731 148.581 47.4361 149.425 47.199C151.864 46.559 155.834 45.0893 157.647 44.1648L159.304 43.2878L160.492 44.236C161.649 45.1604 161.743 45.1841 163.681 45.1841C166.651 45.1841 169.246 44.1648 174.185 41.107L176.467 39.7084L176.655 40.6803C177.437 44.3308 182.814 45.113 187.065 42.1974C188.972 40.8936 189.692 40.064 189.473 39.3765C189.316 38.9261 189.066 38.7839 188.347 38.7839C187.659 38.7839 187.191 39.021 186.315 39.8269C184.94 41.107 182.845 41.9603 181.626 41.7233C180.188 41.4625 179.781 40.6803 180 38.5232C180.156 36.6979 180.219 36.5557 181.563 35.2757C183.814 33.0948 186.221 30.1555 189.098 26.0783C192.13 21.7641 192.63 20.4603 191.505 19.607C191.161 19.3462 190.629 19.1092 190.379 19.1092C189.254 19.1092 187.691 19.844 186.784 20.8159C183.658 24.0634 178.656 32.2178 177.499 35.892C176.999 37.5513 176.874 37.7172 174.904 39.0684C170.184 42.4107 166.182 44.1648 163.869 43.9278C162.524 43.7856 161.461 43.0981 161.461 42.3633C161.461 42.15 162.399 41.2729 163.525 40.4432C166.057 38.5469 168.027 36.5557 170.559 33.3319C176.03 26.3628 179.375 18.4929 177.562 16.9758C176.28 15.9091 174.123 16.6439 172.372 18.7062C169.058 22.57 164.838 29.7762 160.961 38.2624C160.055 40.2773 159.117 42.0551 158.898 42.2685C157.679 43.3826 153.021 45.3501 149.769 46.1086C143.235 47.6494 141.016 46.2271 142.579 41.4862L143.11 39.9454L145.33 39.0921C149.082 37.6698 151.801 36.2001 154.459 34.1852C157.804 31.6489 158.898 29.9658 158.148 28.4962C157.835 27.9036 155.865 27.6191 153.958 27.8798C149.832 28.4725 146.299 31.317 142.641 37.0061C141.203 39.2343 140.953 39.4951 139.828 39.8269C138.702 40.1825 138.546 40.1825 137.608 39.8032C136.827 39.4714 135.889 39.3765 133.169 39.4002C129.98 39.4002 129.449 39.4714 125.791 40.3958C122.102 41.3203 120.82 41.5573 120.82 41.2729C120.82 41.2018 121.414 40.7514 122.133 40.2536C124.165 38.8787 127.979 35.4653 128.98 34.1615C130.043 32.7867 130.168 31.4592 129.324 30.8903C129.011 30.6533 128.542 30.4873 128.292 30.4873C127.573 30.4873 123.853 32.9052 122.102 34.5171C119.663 36.7453 117.381 39.9929 117.381 41.2492C117.381 41.5336 110.16 45.279 108.065 46.1323C106.69 46.6538 103.938 47.2938 103.938 47.0805C103.938 46.962 105.283 45.113 106.971 43.0033C111.473 37.2194 112.442 35.4653 111.066 35.4653C110.285 35.4653 106.69 37.4328 104.595 38.9973C103.469 39.8506 101.125 41.8181 99.4679 43.3352C97.7797 44.876 96.3729 46.1323 96.3104 46.1323C96.2478 46.1323 96.5917 45.516 97.0607 44.7575C98.9052 41.8181 99.5304 39.258 98.655 38.4521C97.936 37.812 96.3729 38.0017 94.4659 38.9499C93.4967 39.4476 91.0583 40.8699 89.0262 42.1263C85.2434 44.473 79.2098 47.8627 79.0534 47.7442C79.0222 47.6968 79.5224 46.8198 80.1789 45.7768C81.2418 44.1174 81.6482 43.7382 83.5553 42.6478C88.0258 40.0877 89.7765 38.0017 88.4635 36.8876C87.8382 36.3661 86.4314 36.2712 85.431 36.6742C85.0871 36.8164 84.7745 36.8876 84.712 36.8402C84.6494 36.7927 84.8683 35.8683 85.2122 34.7542C87.213 27.6902 86.5565 21.1241 83.2739 15.8143C78.2406 7.6599 69.8623 2.63455 58.2951 0.880417C52.5116 0.00335008 48.6975 -0.186287 43.508 0.169281ZM176.624 18.6351C176.936 19.6781 176.092 21.5507 173.435 25.9835C169.558 32.4074 166.557 36.2949 163.337 39.021L162.055 40.0877L162.556 39.1395C163.775 36.7927 165.869 32.763 167.089 30.3688C168.746 27.0502 172.997 20.5315 174.435 19.0381C175.717 17.758 176.342 17.6395 176.624 18.6351ZM189.91 21.527C189.91 22.5463 182.063 33.403 181.595 33.0237C181.282 32.8104 183.47 28.5673 185.409 25.6042C188.128 21.4796 189.91 19.8677 189.91 21.527ZM156.491 29.2547L157.178 29.7051L156.522 30.7718C154.99 33.1422 150.832 35.9394 146.237 37.6935L143.954 38.5469L144.298 37.9069C145.893 34.683 148.769 31.3881 151.02 30.1792C153.521 28.828 155.303 28.5436 156.491 29.2547ZM127.886 32.9526C127.51 34.1141 120.508 40.1114 120.508 39.258C120.508 38.5232 123.227 35.5364 125.416 33.8534C126.666 32.8815 127.792 32.1467 127.886 32.2178C128.011 32.2889 128.011 32.6208 127.886 32.9526ZM87.5569 37.6224C87.6506 37.7646 87.5569 38.1439 87.338 38.4521C86.8691 39.1158 82.4923 41.9129 82.7424 41.3677C82.8362 41.1781 83.1488 40.4906 83.4302 39.8269C83.8053 38.9499 84.2743 38.4521 85.1184 37.978C86.3376 37.3142 87.1817 37.1957 87.5569 37.6224ZM106.877 40.3721C101.719 46.6775 100.812 47.8865 100.812 48.2657C100.812 49.2613 104.501 49.0243 107.877 47.8153C109.566 47.2227 115.412 44.4019 117.319 43.2878C117.85 42.9559 118.413 42.8848 119.82 42.9796C121.352 43.0744 122.196 42.9322 125.978 41.984C130.449 40.8462 135.17 40.301 135.607 40.8462C135.732 40.9884 134.607 41.4862 133.075 41.9603C127.135 43.8567 122.633 46.559 120.82 49.285C120.289 50.0673 119.882 50.8495 119.882 50.9917C119.882 51.1814 117.694 51.5369 113.724 52.0347C110.316 52.4614 102.125 53.5518 95.4975 54.4526C81.6482 56.349 70.425 57.7712 70.2687 57.6764C70.2374 57.629 70.8314 56.9653 71.613 56.183C72.4258 55.4245 73.8951 53.8363 74.8955 52.6985C76.615 50.731 76.9901 50.4702 81.3356 48.0998C83.8679 46.7012 88.1508 44.2597 90.7769 42.6478C95.8727 39.5662 97.3108 39.0447 96.9669 40.3958C96.5917 41.8181 95.4037 43.8093 92.8402 47.199C91.3709 49.1428 90.0891 50.9917 89.9953 51.2762C89.7765 51.8925 90.0579 52.2955 90.6831 52.2955C91.4959 52.2955 96.9981 48.0287 100.562 44.5915C103.876 41.4151 108.19 37.8357 108.69 37.8357C108.815 37.8357 108.003 38.9736 106.877 40.3721ZM140.516 41.4151C140.516 41.6759 140.391 41.8181 140.203 41.747C140.047 41.6759 139.89 41.4388 139.89 41.2492C139.89 41.0596 140.047 40.9173 140.203 40.9173C140.391 40.9173 140.516 41.1307 140.516 41.4151ZM65.7981 41.9603C65.7981 42.8374 64.1412 43.9041 60.9837 45.0419C58.2326 46.0612 54.356 47.0805 53.3556 47.0805C53.0118 47.0805 53.1055 46.8909 53.7933 46.3457C56.013 44.5915 59.7019 42.8611 63.3597 41.8655C65.548 41.2729 65.7981 41.2966 65.7981 41.9603ZM138.046 42.3633C138.734 43.3352 138.233 45.4923 136.889 47.4835C136.233 48.4791 135.451 49.3798 135.201 49.4747C134.638 49.688 121.977 51.0866 121.789 50.968C121.696 50.9206 121.977 50.328 122.415 49.6643C123.321 48.1709 125.885 46.1797 128.417 45.0182C130.449 44.0937 136.639 41.8892 137.296 41.8655C137.514 41.8655 137.827 42.1026 138.046 42.3633ZM48.9164 49.0954C48.9164 49.1665 48.6037 49.688 48.2599 50.2332C47.2907 51.6318 47.1344 53.8363 47.916 54.903C49.0727 56.5149 52.1677 57.1786 55.3252 56.5386C57.4823 56.0882 61.14 54.5711 66.4234 51.9162C69.237 50.4939 71.7068 49.2613 71.9256 49.1665C72.1444 49.048 72.2382 49.1665 72.1444 49.5458C72.0506 49.8539 72.1444 50.328 72.332 50.5888C72.6134 51.0154 72.4571 51.3236 71.2378 52.6985C70.425 53.5755 68.9869 55.0452 68.0178 55.9697C67.0486 56.8705 66.1108 57.7475 65.9544 57.9135C65.6106 58.269 57.8262 59.0276 52.0426 59.2883C46.9781 59.5017 46.1027 59.6202 46.1027 60.0469C46.1027 60.4024 46.7593 60.4024 52.449 60.2602C55.9192 60.1654 59.827 60.0232 61.1088 59.9046C62.3905 59.8098 63.516 59.7624 63.6098 59.8098C63.8599 59.9758 57.4823 64.4796 54.0747 66.5893C46.2903 71.3539 38.9749 74.0088 32.8474 74.2696C19.6234 74.8385 10.6823 65.9967 16.2158 57.7949C17.8102 55.4245 20.5613 53.5992 23.8126 52.7459C24.7817 52.5088 25.6883 52.2955 25.8759 52.2955C26.2198 52.2955 26.251 52.2481 24.2502 57.9846C23.3749 60.521 22.4058 63.65 22.0619 64.9537C21.718 66.2337 21.2178 67.5375 20.9364 67.8456C20.3737 68.5094 20.3424 69.1731 20.8426 69.5524C21.4054 69.9791 23.1248 69.9079 23.8751 69.4101C24.5316 69.0072 27.5641 62.2514 30.0025 55.6615C31.0029 53.054 31.2843 52.5325 31.7845 52.5325C32.5035 52.5325 34.2855 53.22 34.1605 53.4333C34.0979 53.5281 33.5352 54.3578 32.91 55.2823C30.4402 58.8853 30.7841 62.5832 33.6915 63.9107C35.0045 64.527 36.0675 64.5033 37.3805 63.8396C39.0687 62.9862 39.8502 61.564 39.8502 59.2883C39.8502 56.8468 39.225 55.4719 37.4743 53.9785L36.0987 52.817L38.2559 51.0629L40.413 49.3324L44.4146 49.1902C46.6342 49.1191 48.5412 49.048 48.6975 49.0243C48.8226 49.0006 48.9164 49.0243 48.9164 49.0954ZM131.762 52.0584C128.792 53.7889 124.572 54.4763 122.915 53.4807C122.446 53.1963 122.102 52.8881 122.196 52.8407C122.352 52.7222 130.981 51.6555 132.075 51.6081C132.356 51.6081 132.262 51.774 131.762 52.0584ZM37.1929 55.7326C38.1308 56.9653 38.7248 59.1935 38.4434 60.5447C38.1933 61.7773 36.6302 63.1996 35.5047 63.1996C34.5669 63.1996 33.3476 62.1329 32.9412 60.9713C32.441 59.6439 32.9412 57.5342 34.223 55.5193C35.1921 53.9311 35.2234 53.9311 35.8486 54.3578C36.1925 54.5948 36.7865 55.2111 37.1929 55.7326Z" fill="#E3C600"/>
</svg>
