<svg width="152" height="60" viewBox="0 0 152 60" fill="none" xmlns="http://www.w3.org/2000/svg">
<path d="M34.3484 0.133641C21.1688 1.0132 8.28531 7.26371 2.53465 15.554C-1.48834 21.3554 -0.67387 26.8948 4.63253 29.9452C7.69297 31.6856 10.6794 32.2096 16.7509 32.0599C19.0709 31.985 21.4156 31.854 21.9586 31.7604C22.6496 31.6294 22.156 31.6107 20.2309 31.7043C18.75 31.7792 16.5287 31.8166 15.2947 31.7979C8.85297 31.6669 4.287 29.7768 2.13976 26.3708C1.37465 25.1357 1.25124 24.7427 1.15252 23.1145C0.881029 18.7167 3.79338 14.1318 9.71681 9.65911C17.8615 3.50217 29.6096 0.133635 40.3459 0.882199C50.6378 1.59333 60.1893 7.50699 63.5953 15.2733C64.7306 17.8185 64.9034 18.7542 64.8787 22.1975C64.8787 25.7907 64.5579 27.3439 63.0523 30.8809C62.46 32.3032 61.9417 33.0517 60.9544 34.0623C60.2387 34.7921 59.4736 35.653 59.2268 35.9711C58.5357 36.9068 50.0455 41.2298 45.5535 42.9328C43.5791 43.6813 43.0114 43.8123 41.802 43.8123C40.5186 43.8123 40.2718 43.7562 39.5807 43.2322C38.4207 42.3339 38.322 41.2485 39.3093 39.7326L40.0744 38.5724L42.1229 38.2355C47.5527 37.3185 53.9204 34.474 53.9204 32.9581C53.9204 32.1347 53.2787 31.8727 51.4029 31.9663C48.3918 32.1347 43.9493 34.0436 40.9135 36.4764L39.408 37.6928L37.5816 37.8238C36.5944 37.8987 35.385 37.9174 34.916 37.88C34.0522 37.8238 34.0522 37.8238 35.8539 37.1127C36.8165 36.7197 37.631 36.3267 37.631 36.2144C37.631 35.8214 36.5944 36.1021 34.4718 37.0752C32.8675 37.8051 31.9543 38.1045 31.3373 38.1045C30.4735 38.1045 30.202 38.3852 30.7203 38.7782C30.8684 38.8905 30.4488 39.3584 29.4122 40.1256L27.882 41.2672L26.4505 40.8555C25.4632 40.5748 25.0684 40.3689 25.1424 40.1631C28.9926 29.5896 36.0514 5.48587 35.5824 4.53145C35.385 4.15717 34.5705 4.13845 34.1263 4.49402C33.9288 4.62502 32.9663 7.05785 31.979 9.86496C30.3501 14.4873 27.6352 22.0291 23.1926 34.2681C22.3534 36.6261 21.5143 38.9279 21.3662 39.3396C21.0947 40.0882 21.0454 40.1256 19.7126 40.3128C17.4419 40.6683 15.2207 41.6041 13.4189 42.9889C9.09978 46.2826 8.30999 51.3541 11.5679 55.0408C12.9253 56.5566 15.0232 58.0537 16.7262 58.69C18.5526 59.3637 22.2794 60 24.5501 60C29.2148 60 34.9901 58.428 40.3459 55.6958C43.4557 54.1051 47.9723 51.2605 51.1067 48.9213L53.8463 46.8627L59.597 46.2264C62.7561 45.8896 69.8149 45.01 75.2941 44.2802C80.7486 43.5503 87.3137 42.7082 89.8558 42.4088L94.4712 41.8473L95.3103 42.5959C96.3222 43.4942 97.6303 43.8123 99.4814 43.6252C101.086 43.4755 104.171 42.3526 106.047 41.2485L107.453 40.4064L113.944 39.8075C121.201 39.1525 129.049 38.5724 133.516 38.3852C136.75 38.2355 137.342 38.0484 137.342 37.1688C137.342 36.0834 136.922 36.046 131.789 36.701C129.74 36.9442 125.594 37.3747 122.533 37.6367C119.473 37.8987 115.203 38.2917 113.056 38.4975C110.909 38.7034 109.107 38.8344 109.082 38.8157C109.058 38.7782 109.428 38.1419 109.897 37.3934L110.761 36.0085L111.081 36.57C111.575 37.4682 112.661 37.7864 114.858 37.6741C115.894 37.6367 117.301 37.4495 117.967 37.2624C119.893 36.7571 123.027 35.5968 124.459 34.867L125.767 34.1746L126.704 34.9231C127.618 35.653 127.692 35.6717 129.222 35.6717C131.567 35.6717 133.615 34.867 137.515 32.4529L139.316 31.3487L139.465 32.116C140.082 34.998 144.327 35.6155 147.683 33.3137C149.189 32.2844 149.756 31.6294 149.584 31.0867C149.46 30.7312 149.263 30.6189 148.695 30.6189C148.152 30.6189 147.782 30.806 147.091 31.4423C146.005 32.4529 144.351 33.1266 143.389 32.9394C142.253 32.7336 141.933 32.116 142.105 30.413C142.229 28.972 142.278 28.8598 143.339 27.8492C145.116 26.1275 147.017 23.807 149.288 20.5881C151.682 17.1822 152.076 16.1529 151.188 15.4792C150.916 15.2733 150.497 15.0862 150.299 15.0862C149.411 15.0862 148.177 15.6663 147.461 16.4336C144.993 18.9974 141.044 25.4351 140.131 28.3358C139.736 29.6458 139.637 29.7767 138.082 30.8435C134.356 33.4821 131.196 34.867 129.37 34.6798C128.309 34.5676 127.47 34.0248 127.47 33.4447C127.47 33.2763 128.21 32.5839 129.099 31.9289C131.098 30.4317 132.653 28.8598 134.652 26.3146C138.971 20.8127 141.612 14.5996 140.18 13.4019C139.168 12.5598 137.465 13.1399 136.083 14.7681C133.467 17.8184 130.135 23.5075 127.075 30.2072C126.359 31.7979 125.619 33.2014 125.446 33.3699C124.483 34.2494 120.806 35.8027 118.239 36.4015C113.081 37.618 111.328 36.4951 112.562 32.7523L112.982 31.5359L114.734 30.8622C117.696 29.7393 119.843 28.579 121.941 26.9884C124.582 24.9859 125.446 23.6572 124.853 22.497C124.607 22.0291 123.052 21.8046 121.546 22.0104C118.288 22.4783 115.499 24.7239 112.612 29.2153C111.476 30.9745 111.279 31.1803 110.39 31.4423C109.502 31.723 109.378 31.723 108.638 31.4236C108.021 31.1616 107.281 31.0867 105.133 31.1055C102.616 31.1055 102.196 31.1616 99.3086 31.8914C96.3963 32.6213 95.3844 32.8084 95.3844 32.5839C95.3844 32.5277 95.8533 32.1722 96.421 31.7792C98.0252 30.6937 101.036 27.9989 101.826 26.9696C102.665 25.8842 102.764 24.8362 102.098 24.3871C101.851 24.2 101.481 24.069 101.283 24.069C100.715 24.069 97.7784 25.9778 96.3963 27.2503C94.4712 29.0095 92.6695 31.5733 92.6695 32.5652C92.6695 32.7897 86.9682 35.7465 85.3145 36.4203C84.2286 36.832 82.0566 37.3372 82.0566 37.1688C82.0566 37.0752 83.1179 35.6155 84.4507 33.95C88.0048 29.3838 88.7699 27.9989 87.6839 27.9989C87.0669 27.9989 84.2286 29.5522 82.5749 30.7873C81.6864 31.461 79.8354 33.0143 78.5273 34.212C77.1945 35.4284 76.0839 36.4203 76.0345 36.4203C75.9851 36.4203 76.2566 35.9337 76.6268 35.3348C78.083 33.0143 78.5766 30.9932 77.8856 30.3569C77.3179 29.8516 76.0839 30.0013 74.5783 30.7499C73.8132 31.1429 71.8881 32.2657 70.2838 33.2576C67.2974 35.1103 62.534 37.7864 62.4106 37.6928C62.3859 37.6554 62.7808 36.963 63.2991 36.1395C64.1383 34.8296 64.4591 34.5301 65.9647 33.6693C69.494 31.6482 70.8762 30.0013 69.8396 29.1218C69.346 28.71 68.2353 28.6352 67.4455 28.9533C67.174 29.0656 66.9272 29.1218 66.8779 29.0843C66.8285 29.0469 67.0013 28.3171 67.2728 27.4375C68.8523 21.8607 68.334 16.6769 65.7425 12.4849C61.7689 6.04729 55.1544 2.07991 46.0225 0.695064C41.4565 0.00264265 38.4454 -0.147071 34.3484 0.133641ZM139.44 14.7119C139.687 15.5353 139.02 17.0137 136.922 20.5133C133.862 25.5848 131.493 28.6539 128.95 30.806L127.939 31.6482L128.333 30.8996C129.296 29.0469 130.95 25.8655 131.912 23.9754C133.22 21.3554 136.577 16.209 137.712 15.0301C138.724 14.0195 139.218 13.9259 139.44 14.7119ZM149.929 16.995C149.929 17.7997 143.734 26.3708 143.364 26.0714C143.117 25.9029 144.845 22.5531 146.375 20.2139C148.522 16.9576 149.929 15.685 149.929 16.995ZM123.545 23.0958L124.088 23.4514L123.57 24.2935C122.361 26.1649 119.078 28.3732 115.45 29.758L113.648 30.4317L113.92 29.9265C115.178 27.3813 117.449 24.7801 119.226 23.8257C121.201 22.759 122.607 22.5344 123.545 23.0958ZM100.962 26.0152C100.666 26.9322 95.1375 31.6669 95.1375 30.9932C95.1375 30.413 97.2848 28.0551 99.0125 26.7264C99.9997 25.9591 100.888 25.3789 100.962 25.4351C101.061 25.4912 101.061 25.7532 100.962 26.0152ZM69.1238 29.7019C69.1979 29.8142 69.1238 30.1136 68.9511 30.3569C68.5809 30.8809 65.1255 33.0891 65.323 32.6587C65.397 32.509 65.6438 31.9663 65.8659 31.4423C66.1621 30.7499 66.5323 30.3569 67.1987 29.9826C68.1613 29.4586 68.8277 29.365 69.1238 29.7019ZM84.3767 31.8727C80.3043 36.8507 79.5886 37.8051 79.5886 38.1045C79.5886 38.8905 82.5009 38.7034 85.1664 37.749C86.4992 37.2811 91.1145 35.0541 92.6201 34.1746C93.0397 33.9126 93.4839 33.8564 94.5946 33.9313C95.8039 34.0061 96.4703 33.8939 99.4567 33.1453C102.986 32.247 106.713 31.8166 107.058 32.247C107.157 32.3593 106.269 32.7523 105.059 33.1266C100.37 34.6237 96.8158 36.7571 95.3844 38.9092C94.9648 39.5268 94.6439 40.1444 94.6439 40.2566C94.6439 40.4064 92.9163 40.6871 89.7818 41.0801C87.0916 41.4169 80.6252 42.2778 75.3928 42.9889C64.4591 44.486 55.5987 45.6089 55.4753 45.534C55.4506 45.4966 55.9195 44.9726 56.5366 44.355C57.1783 43.7562 58.3383 42.5023 59.1281 41.6041C60.4855 40.0508 60.7817 39.8449 64.2123 37.9735C66.2115 36.8694 69.5928 34.9418 71.666 33.6693C75.689 31.2365 76.8243 30.8247 76.5528 31.8914C76.2566 33.0143 75.3187 34.5863 73.2949 37.2624C72.1349 38.7969 71.123 40.2566 71.0489 40.4812C70.8762 40.9678 71.0983 41.2859 71.5919 41.2859C72.2336 41.2859 76.5775 37.9174 79.3911 35.2038C82.0073 32.6961 85.4133 29.8703 85.8081 29.8703C85.9069 29.8703 85.2652 30.7686 84.3767 31.8727ZM110.933 32.6961C110.933 32.902 110.835 33.0143 110.687 32.9581C110.563 32.902 110.44 32.7149 110.44 32.5652C110.44 32.4154 110.563 32.3032 110.687 32.3032C110.835 32.3032 110.933 32.4716 110.933 32.6961ZM51.9459 33.1266C51.9459 33.819 50.6378 34.6611 48.145 35.5594C45.9731 36.3641 42.9127 37.1688 42.1229 37.1688C41.8514 37.1688 41.9254 37.0191 42.4684 36.5887C44.2208 35.2038 47.1331 33.8377 50.0208 33.0517C51.7484 32.5839 51.9459 32.6026 51.9459 33.1266ZM108.984 33.4447C109.527 34.212 109.132 35.915 108.07 37.487C107.552 38.2729 106.935 38.9841 106.738 39.0589C106.293 39.2274 96.2975 40.3315 96.1495 40.2379C96.0754 40.2005 96.2975 39.7326 96.6431 39.2087C97.3588 38.0297 99.3827 36.4577 101.382 35.5407C102.986 34.8108 107.873 33.0704 108.391 33.0517C108.564 33.0517 108.811 33.2389 108.984 33.4447ZM38.6182 38.7595C38.6182 38.8157 38.3714 39.2274 38.0999 39.6578C37.3348 40.7619 37.2114 42.5023 37.8284 43.3445C38.7416 44.617 41.185 45.141 43.6778 44.6357C45.3808 44.2802 48.2684 43.0825 52.4395 40.9865C54.6608 39.8636 56.6106 38.8905 56.7834 38.8157C56.9561 38.7221 57.0302 38.8157 56.9561 39.1151C56.8821 39.3584 56.9561 39.7326 57.1042 39.9385C57.3263 40.2754 57.2029 40.5186 56.2404 41.6041C55.5987 42.2965 54.4634 43.4567 53.6982 44.1866C52.9331 44.8977 52.1927 45.5902 52.0693 45.7212C51.7978 46.0019 45.6523 46.6007 41.0863 46.8066C37.088 46.975 36.3969 47.0686 36.3969 47.4054C36.3969 47.6861 36.9152 47.6861 41.4071 47.5738C44.1467 47.499 47.2318 47.3867 48.2438 47.2931C49.2557 47.2183 50.1442 47.1809 50.2182 47.2183C50.4157 47.3493 45.3808 50.905 42.6905 52.5705C36.545 56.332 30.7697 58.428 25.9322 58.6339C15.4921 59.083 8.4334 52.1027 12.8019 45.6276C14.0607 43.7562 16.2326 42.3152 18.7994 41.6415C19.5645 41.4543 20.2802 41.2859 20.4283 41.2859C20.6998 41.2859 20.7245 41.2485 19.1449 45.7773C18.4539 47.7797 17.6888 50.25 17.4173 51.2792C17.1458 52.2898 16.7509 53.3191 16.5287 53.5624C16.0845 54.0863 16.0598 54.6103 16.4547 54.9098C16.899 55.2466 18.2564 55.1905 18.8488 54.7975C19.3671 54.4793 21.7611 49.1458 23.6862 43.9433C24.476 41.8848 24.6981 41.4731 25.093 41.4731C25.6607 41.4731 27.0675 42.0158 26.9688 42.1842C26.9194 42.259 26.4752 42.914 25.9815 43.6439C24.0318 46.4884 24.3032 49.4078 26.5986 50.4558C27.6352 50.9424 28.4743 50.9237 29.5109 50.3997C30.8437 49.726 31.4607 48.6031 31.4607 46.8066C31.4607 44.879 30.9671 43.7936 29.585 42.6146L28.499 41.6976L30.202 40.3128L31.905 38.9467L35.0641 38.8344C36.8165 38.7782 38.322 38.7221 38.4454 38.7034C38.5441 38.6847 38.6182 38.7034 38.6182 38.7595ZM104.023 41.0988C101.678 42.4649 98.3461 43.0076 97.038 42.2216C96.6678 41.997 96.3963 41.7538 96.4703 41.7163C96.5937 41.6228 103.406 40.7806 104.269 40.7432C104.492 40.7432 104.418 40.8742 104.023 41.0988ZM29.3628 43.9995C30.1033 44.9726 30.5722 46.7317 30.3501 47.7984C30.1526 48.7715 28.9186 49.8944 28.0301 49.8944C27.2896 49.8944 26.3271 49.0523 26.0062 48.1353C25.6113 47.0873 26.0062 45.4217 27.0181 43.831C27.7833 42.5772 27.8079 42.5772 28.3016 42.914C28.573 43.1012 29.042 43.5877 29.3628 43.9995Z" fill="#FFE140"/>
</svg>
